<svg xmlns="http://www.w3.org/2000/svg" data-name="Layer 2" viewBox="0 0 100 100"><path d="M25.36,65.93a1,1,0,0,0,0-2H23.08V62.72a1,1,0,0,0-2,0v1.21h-.63c-1.48,0-2.64,1.41-2.64,3.21s1.16,3.21,2.64,3.21h.63v2.42H18.81a1,1,0,0,0,0,2h2.27V76a1,1,0,0,0,2,0V74.77h.64c1.48,0,2.64-1.41,2.64-3.21s-1.16-3.21-2.64-3.21h-.64V65.93Zm-1.64,4.42c.25,0,.64.48.64,1.21s-.39,1.21-.64,1.21h-.64V70.35Zm-2.64-2h-.63c-.26,0-.64-.48-.64-1.21s.38-1.21.64-1.21h.63Z"/><path d="M86.24,29.51l-2.83-8.08h0l-1-2.77a6.05,6.05,0,0,0-7.72-3.73L15.39,35.65A6,6,0,0,0,13.24,37H11.32a6.07,6.07,0,0,0-6.07,6.07V79.35a6.07,6.07,0,0,0,6.07,6.07H74.14a6.07,6.07,0,0,0,6.07-6.07v-15l10.48-3.66h0a6.09,6.09,0,0,0,3.72-7.74L86.24,29.52ZM84,29.23,61.83,37H41.94L81.85,23ZM75.37,16.81a4,4,0,0,1,5.17,2.5l.65,1.84L35.88,37H17.64ZM11.32,39H74.14a4.07,4.07,0,0,1,4.07,4.07V45h-71V43.06A4.07,4.07,0,0,1,11.32,39ZM7.25,47h71v6.57h-71Zm71,32.35a4.07,4.07,0,0,1-4.07,4.07H11.32a4.07,4.07,0,0,1-4.07-4.07V55.57h71V79.35ZM90,58.76l-9.82,3.43V43.06A6.07,6.07,0,0,0,74.14,37H67.89l16.79-5.87,7.84,22.45A4.08,4.08,0,0,1,90,58.76Z"/><path d="M32 57.65a11.47 11.47 0 0 0-5 1.13A11.68 11.68 0 0 0 10.38 69.35a11.71 11.71 0 0 0 11.71 11.7 11.74 11.74 0 0 0 5-1.13 11.47 11.47 0 0 0 5 1.13 11.7 11.7 0 1 0 0-23.4zm-10 21.4a9.73 9.73 0 0 1-9.7-9.7 9.71 9.71 0 0 1 9.71-9.7 9.57 9.57 0 0 1 4.51 1.12 9.7 9.7 0 0 1-4.52 18.28zm10 0a9.53 9.53 0 0 1-2.82-.42c.24-.18.47-.39.7-.6l.27-.23a12.67 12.67 0 0 0 1-1.08l.21-.28c.22-.29.44-.6.64-.91.09-.15.17-.3.25-.45s.3-.56.44-.85.15-.34.22-.51.22-.59.31-.88.11-.35.16-.53c.08-.33.14-.66.2-1 0-.16.06-.31.08-.47a10.81 10.81 0 0 0 .11-1.5 11.63 11.63 0 0 0-3.43-8.28 12.78 12.78 0 0 0-1-.91l-.11-.09A9.53 9.53 0 0 1 32 59.65a9.7 9.7 0 0 1 0 19.4zM75.9 59.23H49.36a1 1 0 0 0-1 1v6.63a1 1 0 0 0 1 1H75.9a1 1 0 0 0 1-1V60.23A1 1 0 0 0 75.9 59.23zm-1 6.63H50.36V61.23H74.9zM69.26 69.18H49.36a1 1 0 0 0-1 1v4.07a1 1 0 0 0 1 1h19.9a1 1 0 0 0 1-1V70.18A1 1 0 0 0 69.26 69.18zm-1 4.07H50.36V71.18h17.9z"/></svg>