<svg xmlns="http://www.w3.org/2000/svg" width="16" height="16" viewBox="0 0 16 16"><g transform="translate(0 -1036.362)"><path fill="#c2e4f8" d="m 15.499978,1044.8622 a 6.9999909,6.9999909 0 0 1 -6.9999914,7 6.9999909,6.9999909 0 0 1 -6.9999909,-7 6.9999909,6.9999909 0 0 1 6.9999909,-7 6.9999909,6.9999909 0 0 1 6.9999914,7 z"/><path fill="#00d1b6" fill-rule="evenodd" d="m 9.80112,1048.6596 0,-2.9964"/><path fill="#249fe6" style="line-height:normal;text-indent:0;text-align:start;text-decoration-line:none;text-decoration-style:solid;text-decoration-color:#000;text-transform:none;block-progression:tb;isolation:auto;mix-blend-mode:normal" d="m 8.5,1037.3613 c -4.1362121,0 -7.50000538,3.3638 -7.5,7.5 -5.38e-6,4.1362 3.3637879,7.5 7.5,7.5 4.136212,0 7.500005,-3.3638 7.5,-7.5 5e-6,-4.1362 -3.363788,-7.5 -7.5,-7.5 z m 0,1 c 3.595772,0 6.500005,2.9043 6.5,6.5 5e-6,3.5958 -2.904228,6.5 -6.5,6.5 -3.5957715,0 -6.5000047,-2.9042 -6.5,-6.5 -4.7e-6,-3.5957 2.9042285,-6.5 6.5,-6.5 z" color="#000" font-family="sans-serif" font-weight="400" overflow="visible"/><path fill="#249fe6" fill-rule="evenodd" style="line-height:normal;text-indent:0;text-align:start;text-decoration-line:none;text-decoration-style:solid;text-decoration-color:#000;text-transform:none;block-progression:tb;isolation:auto;mix-blend-mode:normal" d="m 8.5,1043.9512 a 0.50005,0.50005 0 0 0 -0.4921875,0.5078 l 0,2.9961 a 0.50005,0.50005 0 1 0 1,0 l 0,-2.9961 A 0.50005,0.50005 0 0 0 8.5,1043.9512 Z" color="#000" font-family="sans-serif" font-weight="400" overflow="visible"/><path fill="#249fe6" style="line-height:normal;text-indent:0;text-align:start;text-decoration-line:none;text-decoration-style:solid;text-decoration-color:#000;text-transform:none;block-progression:tb;isolation:auto;mix-blend-mode:normal" d="M8.5078125 1050.4199c-.5463624 0-1-.4536-1-1 0-.5463.4536376-1 1-1 .5463624 0 1 .4537 1 1 0 .5464-.4536376 1-1 1zM8.3673822 1044.844a.50005.50005 0 0 0 .1328398.017c1.0548394 0 1.998938-.6668 2.353676-1.6603.354728-.9934.04527-2.1064-.771052-2.7746-.8163234-.668-1.9686236-.7516-2.8722931-.2075-.9036984.5442-1.369581 1.601-1.1609974 2.635a.50006999.50006999 0 0 0 .9806935-.1962c-.1257053-.6232.1523536-1.2545.6969816-1.5825.5446345-.328 1.231894-.2784 1.7238637.1242.4919793.4027.6756757 1.0658.4618682 1.6646-.2137715.5987-.777711.9963-1.4134231.9962a.50005.50005 0 0 0-.1321572.9837z" color="#000" font-family="sans-serif" font-weight="400" overflow="visible"/></g></svg>