<svg xmlns="http://www.w3.org/2000/svg" data-name="Layer 1" viewBox="0 0 512 512"><rect width="292" height="497" x="110" y="7.5" fill="#fff" rx="30"/><path fill="#eee" d="M372,7.5H327a29.99808,29.99808,0,0,1,30,30v437a29.99808,29.99808,0,0,1-30,30h45a29.99808,29.99808,0,0,0,30-30V37.5A29.99808,29.99808,0,0,0,372,7.5Z"/><path fill="#4a4f60" d="M372,512H140a37.54227,37.54227,0,0,1-37.5-37.5V37.5A37.54227,37.54227,0,0,1,140,0H372a37.54227,37.54227,0,0,1,37.5,37.5v437A37.54227,37.54227,0,0,1,372,512ZM140,15a22.52523,22.52523,0,0,0-22.5,22.5v437A22.52523,22.52523,0,0,0,140,497H372a22.52554,22.52554,0,0,0,22.5-22.5V37.5A22.52554,22.52554,0,0,0,372,15Z"/><path fill="#595f74" d="M335.5,467h-159a7.5,7.5,0,0,1,0-15h159a7.5,7.5,0,0,1,0,15Z"/><path fill="#4a4f60" d="M303.22949,37.5h-94.459a15,15,0,0,1-13.41641-8.2918L184.5,7.5h143L316.6459,29.2082A15,15,0,0,1,303.22949,37.5Z"/><rect width="138.5" height="228" x="256" y="142" fill="#eee"/><path fill="#66c1ff" d="M256,157H484.5a20,20,0,0,1,20,20V335a20,20,0,0,1-20,20H256a0,0,0,0,1,0,0V157A0,0,0,0,1,256,157Z"/><path fill="#4eb7ff" d="M484.5,157h-30a20,20,0,0,1,20,20V335a20.00006,20.00006,0,0,1-20,20h30a20.00006,20.00006,0,0,0,20-20V177A20,20,0,0,0,484.5,157Z"/><path fill="#ffe966" d="M256,202h40.5a7,7,0,0,1,7,7v24a7,7,0,0,1-7,7H256a0,0,0,0,1,0,0V202A0,0,0,0,1,256,202Z"/><path fill="#ffe236" d="M296.5,202h-15a7,7,0,0,1,7,7v24a7,7,0,0,1-7,7h15a7,7,0,0,0,7-7V209A7,7,0,0,0,296.5,202Z"/><path fill="#fff" d="M326.30176 322.5h-35a7.5 7.5 0 0 1 0-15h35a7.5 7.5 0 1 1 0 15zM390.5 322.5h-35a7.5 7.5 0 0 1 0-15h35a7.5 7.5 0 0 1 0 15z"/><rect width="57" height="30" x="402.5" y="202" fill="#fff" rx="5"/><path fill="#eee" d="M454.5,202h-15a5,5,0,0,1,5,5v20a5,5,0,0,1-5,5h15a5,5,0,0,0,5-5V207A5,5,0,0,0,454.5,202Z"/><circle cx="457.567" cy="308.067" r="16.933" fill="#ffe966"/><path fill="#ffe236" d="M457.56653,291.13312a16.9151,16.9151,0,0,0-4.81653.705,16.926,16.926,0,0,1,0,32.45685,16.93106,16.93106,0,1,0,4.81653-33.16186Z"/><circle cx="431.985" cy="308.067" r="16.933" fill="#ffc166"/><path fill="#ffb74e" d="M431.98483,291.13312a16.9151,16.9151,0,0,0-4.81653.705,16.926,16.926,0,0,1,0,32.45685,16.93106,16.93106,0,1,0,4.81653-33.16186Z"/><path fill="#595f74" d="M256,381.7373a7.50006,7.50006,0,0,1-7.5-7.5V137.7627a7.5,7.5,0,0,1,15,0V374.2373A7.49974,7.49974,0,0,1,256,381.7373Z"/></svg>