<?xml version="1.0" encoding="utf-8"?>
<!-- Generator: Adobe Illustrator 26.2.1, SVG Export Plug-In . SVG Version: 6.00 Build 0)  -->
<svg version="1.1" id="Layer_1" xmlns="http://www.w3.org/2000/svg" xmlns:xlink="http://www.w3.org/1999/xlink" x="0px" y="0px"
	 viewBox="0 0 60 60" style="enable-background:new 0 0 60 60;" xml:space="preserve">
<style type="text/css">
	.st0{fill:#FFFFFF;}
</style>
<path class="st0" d="M40.3,52c2.4,0,4.4-0.7,5.8-2.1L51,45c0.7-0.7,1.1-1.6,1-2.6c0-1-0.4-1.9-1.1-2.6L47,36
	c-1.4-1.4-3.8-1.5-5.2-0.1l-2.5,2.5c-2.1,2.1-7.4,1.1-13.1-4.7c-5.8-5.8-6.7-11.1-4.7-13.1l2.5-2.5c1.4-1.4,1.4-3.7-0.1-5.2
	l-3.8-3.8C18.7,7.7,16.4,7.6,15,9l-4.9,4.9c-4.9,4.9-0.9,16.7,9.2,26.8C26.5,47.9,34.5,52,40.3,52z M45.6,37.4l3.8,3.8
	c0.3,0.3,0.5,0.8,0.5,1.2c0,0.4-0.2,0.8-0.5,1.1l-1.1,1.1l-6.3-6.3l1.1-1.1C43.9,36.7,45,36.7,45.6,37.4z M17.5,10
	c0.4,0,0.9,0.2,1.2,0.5l3.8,3.8c0.7,0.7,0.7,1.7,0.1,2.4l-1.1,1.1l-6.3-6.3l1.1-1.1C16.7,10.2,17.1,10,17.5,10z M11.5,15.3l2.3-2.3
	l6.3,6.3c-3.3,3.3-1.3,9.9,4.7,15.9c6,6,12.6,8,15.9,4.7l6.3,6.3l-2.3,2.3c-4,4-15-0.2-24-9.2C11.7,30.3,7.5,19.3,11.5,15.3z M50,29
	h2c0-11.6-9.4-21-21-21v2C41.5,10,50,18.5,50,29z"/>
<path class="st0" d="M42,29h2c0-7.2-5.8-13-13-13v2C37.1,18,42,22.9,42,29z M34,29h2c0-2.8-2.2-5-5-5v2C32.7,26,34,27.3,34,29z"/>
</svg>
