<svg id="SvgjsSvg1019" width="288" height="288" xmlns="http://www.w3.org/2000/svg" version="1.1" xmlns:xlink="http://www.w3.org/1999/xlink" xmlns:svgjs="http://svgjs.com/svgjs"><defs id="SvgjsDefs1020"></defs><g id="SvgjsG1021"><svg xmlns="http://www.w3.org/2000/svg" enable-background="new 0 0 1080 1080" viewBox="0 0 1080 1080" width="288" height="288"><path d="M826.7 694.5H253.3c-29.9 0-59.1 12.2-80 33.3-21.2 20.9-33.3 50.1-33.3 80.1 0 62.5 50.8 113.3 113.3 113.3h573.3c29.9 0 59.1-12.2 80-33.3 21.2-20.9 33.3-50.1 33.3-80.1C940 745.3 889.2 694.5 826.7 694.5zM894.9 876.1c-17.8 18-42.7 28.4-68.2 28.4H253.3c-53.3 0-96.7-43.4-96.7-96.7 0-25.5 10.3-50.4 28.4-68.3 17.8-18 42.7-28.4 68.2-28.4h573.3c53.3 0 96.7 43.4 96.7 96.7C923.3 833.3 913 858.2 894.9 876.1zM408.7 664.7h262.7c27.3 0 49.5-22.2 49.5-49.5V449.2c0-27.3-22.2-49.5-49.5-49.5H508.4V289.5c0-17.1 14.5-31.6 31.6-31.6s31.6 14.5 31.6 31.6v7.8c0 27.3 22.2 49.5 49.5 49.5s49.5-22.2 49.5-49.5v-7.8c0-72-58.6-130.6-130.6-130.6-72 0-130.6 58.6-130.6 130.6v110.2h-.7c-27.3 0-49.5 22.2-49.5 49.5v165.9C359.2 642.5 381.4 664.7 408.7 664.7zM426.1 289.5c0-62.8 51.1-113.9 113.9-113.9 62.8 0 113.9 51.1 113.9 113.9v7.8c0 18.1-14.7 32.8-32.8 32.8-18.1 0-32.8-14.7-32.8-32.8v-7.8c0-26.6-21.7-48.3-48.3-48.3-26.6 0-48.3 21.7-48.3 48.3v110.2h-65.7V289.5zM375.8 449.2c0-18.1 14.7-32.8 32.8-32.8h9.1 82.3 171.3c18.1 0 32.8 14.7 32.8 32.8v165.9c0 18.1-14.7 32.8-32.8 32.8H408.7c-18.1 0-32.8-14.7-32.8-32.8V449.2z" fill="#ffffff" class="color000 svgShape"></path><path d="M531.7 560.1v39.6c0 4.6 3.7 8.3 8.3 8.3s8.3-3.7 8.3-8.3v-39.6c24.7-4 43.6-25.4 43.6-51.2 0-28.9-23.3-52.5-52-52.5-28.6 0-51.9 23.5-51.9 52.5C488.1 534.7 507 556.1 531.7 560.1zM540 473.1c19.8 0 35.3 15.7 35.3 35.8 0 19.5-15.8 35.3-35.3 35.3-19.4 0-35.3-15.8-35.3-35.3C504.7 488.8 520.2 473.1 540 473.1zM366.8 770.7c-3.3-3.3-8.5-3.3-11.8 0L329.7 796l-25.3-25.3c-3.3-3.3-8.5-3.3-11.8 0-3.3 3.3-3.3 8.5 0 11.8l25.3 25.3-25.3 25.3c-3.3 3.3-3.3 8.5 0 11.8 1.6 1.6 3.8 2.4 5.9 2.4s4.3-.8 5.9-2.4l25.3-25.3 25.3 25.3c1.6 1.6 3.8 2.4 5.9 2.4 2.1 0 4.3-.8 5.9-2.4 3.3-3.3 3.3-8.5 0-11.8l-25.3-25.3 25.3-25.3C370 779.2 370 773.9 366.8 770.7zM507 770.7c-3.3-3.3-8.5-3.3-11.8 0L469.9 796l-25.3-25.3c-3.3-3.3-8.5-3.3-11.8 0-3.3 3.3-3.3 8.5 0 11.8l25.3 25.3-25.3 25.3c-3.3 3.3-3.3 8.5 0 11.8 1.6 1.6 3.8 2.4 5.9 2.4s4.3-.8 5.9-2.4l25.3-25.3 25.3 25.3c1.6 1.6 3.8 2.4 5.9 2.4 2.1 0 4.3-.8 5.9-2.4 3.3-3.3 3.3-8.5 0-11.8l-25.3-25.3 25.3-25.3C510.2 779.2 510.2 773.9 507 770.7zM647.2 770.7c-3.3-3.3-8.5-3.3-11.8 0L610.1 796l-25.3-25.3c-3.3-3.3-8.5-3.3-11.8 0-3.3 3.3-3.3 8.5 0 11.8l25.3 25.3L573 833.1c-3.3 3.3-3.3 8.5 0 11.8 1.6 1.6 3.8 2.4 5.9 2.4 2.1 0 4.3-.8 5.9-2.4l25.3-25.3 25.3 25.3c1.6 1.6 3.8 2.4 5.9 2.4s4.3-.8 5.9-2.4c3.3-3.3 3.3-8.5 0-11.8l-25.3-25.3 25.3-25.3C650.5 779.2 650.5 773.9 647.2 770.7zM787.4 770.7c-3.3-3.3-8.5-3.3-11.8 0L750.3 796 725 770.7c-3.3-3.3-8.5-3.3-11.8 0-3.3 3.3-3.3 8.5 0 11.8l25.3 25.3-25.3 25.3c-3.3 3.3-3.3 8.5 0 11.8 1.6 1.6 3.8 2.4 5.9 2.4 2.1 0 4.3-.8 5.9-2.4l25.3-25.3 25.3 25.3c1.6 1.6 3.8 2.4 5.9 2.4 2.1 0 4.3-.8 5.9-2.4 3.3-3.3 3.3-8.5 0-11.8l-25.3-25.3 25.3-25.3C790.7 779.2 790.7 773.9 787.4 770.7z" fill="#ffffff" class="color000 svgShape"></path></svg></g></svg>