<svg id="SvgjsSvg1013" width="288" height="288" xmlns="http://www.w3.org/2000/svg" version="1.1" xmlns:xlink="http://www.w3.org/1999/xlink" xmlns:svgjs="http://svgjs.com/svgjs"><defs id="SvgjsDefs1014"></defs><g id="SvgjsG1015"><svg xmlns="http://www.w3.org/2000/svg" viewBox="0 0 64 64" width="288" height="288"><path fill="#eaf2ff" d="M24,32a9,9,0,1,0-9-9A9,9,0,0,0,24,32ZM43.68,19.43a13,13,0,0,0-7.06,20.39l-.46.36A147.129,147.129,0,0,1,24,55S4,34.05,4,23a20,20,0,0,1,39.68-3.57Z" class="color78b9eb svgShape"></path><path fill="#377dff" d="M61,32A13.955,13.955,0,0,0,44.436,18.246,20.99,20.99,0,0,0,3,23c0,9.58,13.927,25.734,18.71,31H16v2H32V54H26.281a149.173,149.173,0,0,0,10.3-12.686A13.992,13.992,0,0,0,44,45.668V47a1,1,0,0,0-1,1V58a4,4,0,0,0,8,0V48a1,1,0,0,0-1-1V45.668A14.018,14.018,0,0,0,61,32ZM24,53.534C20.443,49.672,5,32.362,5,23a18.99,18.99,0,0,1,37.5-4.245,13.967,13.967,0,0,0-7.2,20.911A147.577,147.577,0,0,1,24,53.534ZM35,32A12,12,0,1,1,47,44,12.013,12.013,0,0,1,35,32ZM49,58a2,2,0,0,1-4,0V49h4ZM48,47H46V45.949c.332.024.662.051,1,.051s.668-.027,1-.051Z" class="color006df0 svgShape"></path><path fill="#377dff" d="M47 40a8 8 0 0 1 0-16V22a10 10 0 0 0 0 20zM24 13A10 10 0 1 0 34 23 10.011 10.011 0 0 0 24 13zm0 18a8 8 0 1 1 8-8A8.009 8.009 0 0 1 24 31z" class="color006df0 svgShape"></path></svg></g></svg>